HIERARCHY
ROOT Hips
{
  OFFSET 0 0 0
  CHANNELS 6 Xposition Yposition Zposition Zrotation Xrotation Yrotation
  JOINT Spine
  {
    OFFSET 0 10 0
    CHANNELS 3 Zrotation Xrotation Yrotation
    JOINT Neck
    {
      OFFSET 0 30 0
      CHANNELS 3 Zrotation Xrotation Yrotation
      JOINT Head
      {
        OFFSET 0 8 0
        CHANNELS 3 Zrotation Xrotation Yrotation
        End Site
        {
          OFFSET 0 10 0
        }
      }
    }
    JOINT LeftArm
    {
      OFFSET 15 30 0
      CHANNELS 3 Zrotation Xrotation Yrotation
      JOINT LeftForeArm
      {
        OFFSET 25 0 0
        CHANNELS 3 Zrotation Xrotation Yrotation
        JOINT LeftHand
        {
          OFFSET 25 0 0
          CHANNELS 3 Zrotation Xrotation Yrotation
          End Site
          {
            OFFSET 10 0 0
          }
        }
      }
    }
    JOINT RightArm
    {
      OFFSET -15 30 0
      CHANNELS 3 Zrotation Xrotation Yrotation
      JOINT RightForeArm
      {
        OFFSET -25 0 0
        CHANNELS 3 Zrotation Xrotation Yrotation
        JOINT RightHand
        {
          OFFSET -25 0 0
          CHANNELS 3 Zrotation Xrotation Yrotation
          End Site
          {
            OFFSET -10 0 0
          }
        }
      }
    }
  }
  JOINT LeftUpLeg
  {
    OFFSET 10 -10 0
    CHANNELS 3 Zrotation Xrotation Yrotation
    JOINT LeftLeg
    {
      OFFSET 0 -35 0
      CHANNELS 3 Zrotation Xrotation Yrotation
      JOINT LeftToe
      {
        OFFSET 0 -40 0
        CHANNELS 3 Zrotation Xrotation Yrotation
        JOINT LeftToeEnd
        {
          OFFSET 0 0 0
          CHANNELS 3 Zrotation Xrotation Yrotation
          End Site
          {
            OFFSET 0 0 15
          }
        }
      }
    }
  }
  JOINT RightUpLeg
  {
    OFFSET -10 -10 0
    CHANNELS 3 Zrotation Xrotation Yrotation
    JOINT RightLeg
    {
      OFFSET 0 -35 0
      CHANNELS 3 Zrotation Xrotation Yrotation
      JOINT RightToe
      {
        OFFSET 0 -40 0
        CHANNELS 3 Zrotation Xrotation Yrotation
        JOINT RightToeEnd
        {
          OFFSET 0 0 0
          CHANNELS 3 Zrotation Xrotation Yrotation
          End Site
          {
            OFFSET 0 0 15
          }
        }
      }
    }
  }
}
MOTION
Frames:	21
Frame Time:	0.0333333
3.60182 117.838 -77.2522 2.20372 1.8452 0.0390425 3.13343 6.69219 3.36999 -7.34953 -17.7278 -3.98084 10.9582 18.0113 -8.63074 -93.6216 25.1342 12.5699 19.5943 -10.0934 -42.9737 -0.866444 -9.45311 -2.47939 91.1382 25.0055 -14.7584 -21.2166 -9.75797 39.4037 1.40354 -4.55599 0.258436 3.19243 -15.3437 3.90484 0.564484 28.1792 -0.654117 1.04877 21.4884 -7.29961 -5.96354e-016 6.36111e-015 -0 -3.81343 -10.8271 -3.03867 -1.1573 26.8655 0.770585 3.39899 18.5085 -4.9012 -7.95139e-016 -6.36111e-015 1.59028e-015 
3.49061 110.494 -76.5042 2.55757 1.08833 -0.424946 2.99024 6.16233 2.60186 -7.24582 -17.7465 -3.71774 10.4774 17.2861 -7.13282 -94.281 27.3255 16.568 21.686 -12.9528 -48.9828 -0.670852 -7.99105 -2.45797 90.5503 29.3682 -16.9432 -22.8668 -12.0017 43.9891 1.34675 -4.57786 0.32863 3.00886 -14.3145 4.22633 0.60188 28.1943 -0.751446 2.11251 23.045 -9.39962 0 0 -7.95139e-016 -4.11148 -9.36328 -1.80909 -1.19418 26.3431 0.793917 3.35001 19.801 -4.3657 -7.95139e-016 3.18055e-015 -1.59028e-015 
3.37389 102.244 -75.715 2.73311 0.50078 -0.985771 2.8566 5.12797 2.98395 -6.67982 -17.518 -3.12671 9.74026 17.3797 -6.46645 -94.7436 29.1312 20.6202 23.1233 -15.8245 -54.7672 -0.777015 -7.7312 -2.1816 90.2444 31.9392 -19.1707 -24.346 -14.3241 48.4799 1.3846 -3.37073 0.236923 2.91212 -13.5819 4.51068 0.665774 28.9714 -0.839172 2.62096 23.3794 -10.4436 -7.95139e-016 -9.54166e-015 -0 -4.05524 -8.56108 -0.436942 -1.23089 26.474 0.775213 3.98184 21.8918 -5.42438 -7.95139e-016 3.18055e-015 1.59028e-015 
3.39463 92.9507 -75.559 3.07674 0.521625 -1.86507 2.59459 4.87011 3.4818 -7.15418 -17.7911 -3.13878 10.7942 15.3083 -6.2003 -94.3946 29.0176 22.5678 24.2502 -18.7355 -60.9919 -0.638818 -5.92364 -2.06561 88.4681 32.8874 -18.3117 -25.7106 -17.2816 53.8757 1.33009 -3.85547 0.279062 2.66029 -16.1738 3.62627 0.77589 36.5917 -1.02045 0.888191 4.48684 -13.7074 0 3.18055e-015 -0 -4.21078 -11.1486 -0.073446 -1.36686 36.9523 0.860934 1.45258 -3.22427 -5.18459 -3.97569e-016 3.18055e-015 -1.59028e-015 
3.53466 86.1641 -76.4278 2.58513 0.43636 -2.40175 3.63793 8.42957 3.16411 -7.04279 -21.6015 -3.47146 9.22371 13.0481 -5.63038 -93.7556 25.4122 18.6261 24.7908 -20.8276 -65.9471 -0.521751 -2.75638 -1.87042 84.2456 30.9182 -10.1643 -26.189 -18.2492 55.5906 1.35808 -0.70052 0.182609 3.9158 -20.5794 6.26531 1.19347 50.3965 -0.993564 -2.02274 -16.5734 -7.9736 -1.98785e-016 0 -7.95139e-016 -3.62597 -16.3384 -1.30777 -1.44062 49.3032 0.75258 -2.5688 -22.8615 -10.4584 -3.97569e-016 1.59028e-015 -3.18055e-015 
3.7684 81.8189 -77.0608 2.60074 -0.00850757 -4.6611 4.65038 11.424 3.87678 -6.69426 -24.0418 -2.57316 7.50484 11.4151 -3.85994 -93.3893 20.7607 9.8412 24.3567 -18.2829 -59.2862 -0.691015 -3.64313 -1.94343 79.8439 24.3246 3.55967 -23.2208 -12.0885 44.2397 1.37396 -1.17529 0.0554531 3.12747 -23.0731 7.77176 1.27297 58.9228 -0.81543 1.03454 -28.4064 3.34664 -1.98785e-016 0 -0 -3.15268 -23.6448 -0.139292 -1.31601 62.8987 0.439844 -5.9676 -29.7859 -15.3124 1.19271e-015 -1.59028e-015 -0 
4.28951 79.4916 -77.5797 2.95594 -1.53388 -6.11168 5.75555 14.7431 4.28468 -6.15182 -25.8858 -1.65435 5.31292 10.4665 -2.51438 -94.9121 15.7336 2.3078 22.724 -13.8562 -50.2421 -1.03276 -6.79185 -2.22559 82.221 11.0326 12.4069 -19.5988 -7.6669 34.7299 1.03716 3.716 0.13973 0.794293 -24.2267 5.95647 1.41033 64.8502 -0.798139 4.08946 -32.5093 9.70786 4.96962e-016 0 -0 -4.12194 -26.9677 -0.349504 -1.28808 70.8586 0.30418 -7.01608 -31.9365 -16.5621 1.59028e-015 -1.59028e-015 -0 
4.44779 79.3023 -77.446 3.31154 -1.10863 -7.90888 6.08655 15.1256 5.94458 -5.79291 -27.1456 -1.17227 5.34956 9.03421 -2.43093 -94.0345 17.7598 -1.65182 21.0377 -11.0153 -44.575 -1.28995 -7.99563 -2.51665 86.6659 5.40881 14.2893 -19.6944 -7.5581 34.5805 1.12028 2.63093 -0.0726538 0.394712 -24.6619 6.47559 1.36636 65.3521 -0.705271 4.68638 -32.7555 11.0421 5.96354e-016 -1.59028e-015 -1.59028e-015 -3.33663 -27.9288 2.41572 -1.16167 71.3518 0.0686928 -7.48187 -32.2031 -17.5104 -7.95139e-016 0 6.36111e-015 
4.61451 80.7047 -76.774 3.64987 -0.0986852 -9.65547 6.72971 13.5189 5.99589 -5.09517 -27.3619 -0.609309 4.97504 8.79692 -1.53225 -93.9941 20.6378 0.00723925 20.6381 -10.9627 -44.226 -0.961209 -4.03179 -2.26089 87.077 10.3421 14.2637 -20.5454 -8.43526 36.4392 1.17547 -4.18633 0.134105 0.179637 -22.9525 7.64164 1.26843 61.0114 -0.708234 4.22493 -30.9838 10.684 1.98785e-016 -7.95139e-016 -7.95139e-016 -2.37869 -26.8434 5.08733 -1.11228 67.4597 0.0101921 -7.20492 -30.5484 -17.8704 1.19271e-015 1.59028e-015 -3.18055e-015 
4.61723 82.9486 -76.0041 4.28904 0.690754 -8.24617 6.98865 11.423 3.21764 -4.77516 -27.2665 -0.976306 5.03747 9.08759 -0.49531 -93.8816 24.3028 3.35821 20.8247 -11.3428 -45.0215 -0.897001 -2.70745 -2.26059 88.4938 13.6121 13.062 -21.396 -9.48529 38.6201 1.13605 2.29428 0.018558 -1.23503 -20.0639 5.99187 1.19405 53.9872 -0.823659 2.72193 -27.1355 8.45475 -5.96354e-016 -1.59028e-015 -0 -2.63516 -23.6163 5.99267 -1.21908 61.2324 0.159999 -6.30235 -27.8314 -17.6005 1.19271e-015 3.18055e-015 3.18055e-015 
4.52983 85.5214 -75.2334 4.80446 1.80614 -6.33709 7.08292 8.88008 0.857941 -4.37651 -27.5777 -1.59906 4.12283 11.0425 -0.510563 -93.2333 26.6641 4.86184 20.4264 -10.99 -44.2858 -0.848936 -4.2126 -2.25837 89.7045 16.0763 10.798 -22.1296 -10.6885 41.0263 0.933324 7.15431 -0.322643 -2.34482 -17.2577 3.97209 1.04295 46.1533 -0.865304 1.16592 -21.5561 6.11857 9.44227e-016 0 -1.19271e-015 -3.25239 -20.4998 5.96041 -1.27335 54.5401 0.329771 -4.66271 -23.5913 -16.529 -2.64834e-031 -3.18055e-015 -4.77083e-015 
4.3815 88.1609 -74.4551 4.96275 2.4518 -6.54119 6.97671 7.06781 0.321201 -3.88946 -27.0589 -1.67464 4.32174 12.4128 -0.595977 -92.6905 27.111 5.9977 20.1644 -10.7257 -43.7905 -0.482119 -2.95481 -2.3805 90.5721 18.2001 8.22109 -22.9174 -11.7118 43.0534 1.06656 5.353 -0.0588167 -2.55239 -14.0989 3.74942 0.912529 38.7947 -0.896924 -0.148196 -14.7763 4.02458 0 0 -9.93923e-017 -3.2145 -18.2145 7.47382 -1.28866 48.8726 0.487119 -2.34073 -17.5783 -14.3935 7.95139e-016 0 -3.18055e-015 
4.2557 90.4884 -73.944 4.93922 3.0364 -6.08737 6.86651 6.1119 -0.117221 -3.59789 -26.8174 -2.12145 4.35328 12.9671 -1.34084 -91.1053 27.5815 5.18251 19.9121 -10.4603 -43.2313 -0.588405 -0.742168 -2.24938 91.4916 18.1961 6.55024 -23.4907 -12.6061 44.7769 1.04349 1.46084 0.0710281 -2.54195 -11.9295 3.09101 0.762451 32.6534 -0.967405 -0.855996 -8.1295 1.68599 9.93923e-017 -3.18055e-015 1.98785e-016 -3.514 -16.5504 7.29793 -1.27865 44.0126 0.656966 -0.449712 -11.3962 -12.1249 -3.97569e-016 3.18055e-015 -1.59028e-015 
4.17636 92.3151 -73.5246 5.34467 3.30566 -5.94859 6.16011 5.61438 -0.140305 -3.66851 -26.5593 -2.28248 4.96698 13.7032 -1.68329 -89.2429 27.92 4.00327 19.8817 -10.5193 -43.3405 -0.574915 0.527356 -2.12412 91.9368 16.9151 5.50156 -23.6889 -12.923 45.4259 1.02331 0.183126 0.127379 -3.01857 -9.77592 2.36556 0.610811 27.5246 -0.942303 -1.18831 -3.07312 0.385164 -1.98785e-016 3.18055e-015 -0 -4.51771 -15.2403 6.37753 -1.2584 40.107 0.743205 0.751464 -6.27043 -10.2965 3.97569e-016 3.18055e-015 -0 
4.00606 93.7202 -73.2584 5.31191 3.71875 -5.70354 5.52677 5.35791 0.0909185 -3.63245 -25.7517 -2.43266 5.9373 13.029 -2.09561 -87.2285 27.965 2.65848 20.2572 -11.0036 -44.3959 -0.525058 0.669963 -2.09841 91.6021 16.4128 5.11631 -23.722 -12.8982 45.45 1.08367 -0.968272 0.148997 -2.74451 -8.24578 1.67817 0.4608 23.3392 -0.899439 -1.30877 1.24108 -0.565461 0 3.18055e-015 -0 -4.68204 -14.0551 5.64001 -1.22 36.3442 0.845019 1.42778 -1.99733 -9.55473 1.59028e-015 -9.54166e-015 3.18055e-015 
3.85381 94.5725 -73.0502 5.09278 4.43843 -5.9337 5.26113 4.61436 0.104774 -3.80528 -24.2095 -2.43118 6.53525 12.8345 -2.16603 -85.9681 27.0245 2.07528 20.894 -11.6026 -45.817 -0.552777 -0.075447 -2.2506 90.4154 16.8347 5.21152 -23.3572 -12.2953 44.3349 1.1365 -1.32088 0.183161 -2.29538 -7.56034 0.88596 0.34637 20.2139 -0.842445 -1.40375 4.37212 -0.73959 7.95139e-016 -6.36111e-015 7.95139e-016 -4.42843 -13.5422 5.25267 -1.17303 33.4621 0.834591 1.91241 0.863676 -9.21605 -0 0 1.59028e-015 
3.77387 95.0226 -72.7079 5.14449 4.98642 -5.70279 4.83234 3.8624 -0.133341 -4.62626 -23.2994 -2.67032 7.61888 13.4905 -2.34811 -85.2567 26.1635 1.56256 21.2614 -12.1062 -46.8611 -0.891156 -1.79601 -2.0591 88.9555 16.6435 5.59223 -22.5778 -11.2267 42.2805 1.11866 -1.41312 0.133326 -2.34819 -6.60047 -0.307671 0.266617 17.6462 -0.820836 -1.48128 5.99025 -0.671837 -3.97569e-016 0 7.95139e-016 -4.55928 -12.4811 4.6326 -1.143 30.7643 0.854024 2.04373 2.01865 -9.01387 1.59028e-015 -6.36111e-015 1.59028e-015 
3.59516 95.1134 -72.6115 4.87869 5.79478 -5.90532 4.45626 3.42325 0.00939029 -4.45726 -22.8746 -2.6442 7.25364 13.9009 -2.59774 -84.2631 24.7383 0.616221 21.6143 -12.5864 -47.8821 -0.814876 -2.21871 -2.08424 87.437 16.8529 6.86963 -21.6317 -10.0653 39.8872 1.06161 -1.85937 0.1317 -1.90694 -6.74736 -0.835407 0.21903 16.4708 -0.782048 -1.58775 6.44365 -0.234469 -3.97569e-016 -3.18055e-015 -0 -3.89608 -12.26 5.44905 -1.09757 28.9737 0.812974 2.14399 2.09784 -9.69332 -7.95139e-016 0 -0 
3.48364 94.9536 -72.612 4.92759 6.58432 -5.71652 3.8681 2.99448 -0.356119 -4.80645 -21.7238 -2.81083 7.6254 13.1296 -2.58476 -83.7603 23.1484 -0.388946 21.8051 -12.7513 -48.276 -0.727283 -1.97879 -2.16412 86.4083 16.6943 7.47468 -20.6585 -8.97463 37.5439 1.01625 -1.07437 0.0662868 -1.84829 -7.19756 -1.20347 0.18313 15.7384 -0.74938 -1.63208 6.43059 0.0002169 3.97569e-016 3.18055e-015 -2.38542e-015 -3.67546 -12.3023 6.07918 -1.06805 27.876 0.779281 2.14982 1.66763 -10.4624 1.76556e-031 3.18055e-015 -3.18055e-015 
3.3497 94.7416 -72.6043 4.63785 7.01979 -5.87622 3.65427 3.18448 0.00700877 -5.23992 -21.6753 -2.79754 7.95053 13.4189 -2.82331 -83.5302 22.119 -1.31484 21.7547 -12.726 -48.2061 -0.79838 -1.32275 -2.04028 85.9748 15.1156 8.21711 -19.6046 -7.85019 35.0035 0.989451 0.184435 -0.00387988 -1.38898 -7.15337 -1.18051 0.156548 15.0326 -0.737594 -1.65607 6.02228 0.227656 3.97569e-016 -3.18055e-015 7.95139e-016 -3.14089 -11.9975 6.72444 -1.0456 26.6889 0.755139 2.06818 1.0151 -10.862 0 0 -0 
3.27399 94.5561 -72.6433 4.68455 7.58741 -5.61421 3.185 3.2896 -0.492194 -5.71622 -21.7332 -3.06042 8.06964 13.8219 -2.72181 -84.0179 20.72 -1.72257 21.744 -12.3935 -47.6522 -0.786495 -1.21962 -2.26499 85.9297 14.2288 8.25563 -18.8899 -7.13777 33.3114 1.00548 -0.348012 0.0480703 -1.31257 -7.3194 -1.41076 0.125054 14.3906 -0.726731 -1.62778 5.55919 0.232872 3.97569e-016 -6.36111e-015 7.95139e-016 -3.1443 -12.0049 6.4047 -1.02968 25.8378 0.717245 1.98474 0.315139 -11.0084 -3.97569e-016 -6.36111e-015 -1.59028e-015 
